<svg width="38" height="39" viewBox="0 0 38 39" fill="none" xmlns="http://www.w3.org/2000/svg">
<g clip-path="url(#clip0)">
<path d="M37.4805 7.94482L26.0219 19.3297L37.4805 30.7146C37.6877 30.2816 37.8133 29.803 37.8133 29.2919V9.3675C37.8133 8.85633 37.6877 8.37777 37.4805 7.94482Z" fill="#02A4B8"/>
<path d="M34.4926 6.04678H3.35151C2.84034 6.04678 2.36178 6.17246 1.92883 6.3796L16.5742 20.9512C17.8692 22.2462 19.975 22.2462 21.2699 20.9512L35.9153 6.3796C35.4823 6.17246 35.0038 6.04678 34.4926 6.04678Z" fill="#02A4B8"/>
<path d="M0.363573 7.94482C0.156433 8.37777 0.0307617 8.85633 0.0307617 9.3675V29.2919C0.0307617 29.8031 0.156433 30.2817 0.363573 30.7146L11.8222 19.3297L0.363573 7.94482Z" fill="#02A4B8"/>
<path d="M24.4566 20.895L22.8351 22.5165C20.6775 24.6741 17.1666 24.6741 15.0089 22.5165L13.3875 20.895L1.92883 32.2799C2.36178 32.487 2.84034 32.6127 3.35151 32.6127H34.4926C35.0038 32.6127 35.4823 32.487 35.9153 32.2799L24.4566 20.895Z" fill="#02A4B8"/>
</g>
<defs>
<clipPath id="clip0">
<rect width="37.7826" height="37.7826" fill="white" transform="translate(0.0307617 0.438446)"/>
</clipPath>
</defs>
</svg>
