<svg width="34" height="33" viewBox="0 0 34 33" fill="none" xmlns="http://www.w3.org/2000/svg">
<path d="M30.658 21.2938C28.6752 21.2938 26.7284 20.9837 24.8836 20.3741C23.9796 20.0657 22.8683 20.3486 22.3165 20.9152L18.6751 23.6641C14.4522 21.4099 11.8509 18.8095 9.62749 14.6182L12.2955 11.0717C12.9886 10.3795 13.2372 9.36828 12.9394 8.4195C12.3271 6.56495 12.0161 4.61906 12.0161 2.63548C12.0161 1.20252 10.8504 0.0367432 9.41749 0.0367432H3.47011C2.03724 0.0367432 0.87146 1.20252 0.87146 2.63539C0.87146 19.0598 14.2335 32.4218 30.658 32.4218C32.0908 32.4218 33.2566 31.256 33.2566 29.8232V23.8924C33.2565 22.4596 32.0907 21.2938 30.658 21.2938Z" fill="#00A3B1"/>
</svg>
